<svg xmlns="http://www.w3.org/2000/svg" 
    xmlns:xlink="http://www.w3.org/1999/xlink" version="1.1" x="0px" y="0px" viewBox="0 0 95.554 61.77875" enable-background="new 0 0 95.554 49.423" xml:space="preserve">
    <polyline fill="none" stroke="#ffffff" stroke-width="0.8985" stroke-linecap="round" stroke-linejoin="round" points="0.467,20.39 8.104,20.39 8.074,25.383 0.449,25.383 "/>
    <g>
        <circle fill="none" stroke="#ffffff" stroke-width="0.9103" cx="18.577" cy="6.8" r="6.344"/>
        <polyline fill="none" stroke="#ffffff" stroke-width="0.9103" stroke-linecap="round" stroke-linejoin="round" points="25.848,31.479 24.204,32.023 24.204,38.398 23.204,39.195 23.204,48.968 13.964,48.968 13.964,39.256 12.964,38.398 12.964,31.968 10.055,31.11 10.055,17.418 12.624,15.081 24.49,15.081 27.055,17.48 27.055,28.288 21.683,30.227"/>
        <line fill="none" stroke="#ffffff" stroke-width="0.9103" stroke-linecap="round" stroke-linejoin="round" x1="18.714" y1="48.968" x2="18.714" y2="39.256"/>
    </g>
    <polyline fill="none" stroke="#ffffff" stroke-width="0.8985" stroke-linecap="round" stroke-linejoin="round" points="29.467,20.391 37.104,20.391 37.074,25.383 29.449,25.383 "/>
    <g>
        <circle fill="none" stroke="#ffffff" stroke-width="0.9103" cx="47.578" cy="6.8" r="6.344"/>
        <polyline fill="none" stroke="#ffffff" stroke-width="0.9103" stroke-linecap="round" stroke-linejoin="round" points="54.848,31.479 53.204,32.023 53.204,38.398 52.204,39.195 52.204,48.968 42.964,48.968 42.964,39.256 41.964,38.398 41.964,31.968 39.055,31.11 39.055,17.418 41.624,15.081 53.49,15.081 56.055,17.48 56.055,28.288 50.684,30.227"/>
        <line fill="none" stroke="#ffffff" stroke-width="0.9103" stroke-linecap="round" stroke-linejoin="round" x1="47.714" y1="48.968" x2="47.714" y2="39.256"/>
    </g>
    <polyline fill="none" stroke="#ffffff" stroke-width="0.8985" stroke-linecap="round" stroke-linejoin="round" points="58.467,20.391 66.104,20.391 66.074,25.383 58.449,25.383 "/>
    <polyline fill="none" stroke="#ffffff" stroke-width="0.8985" stroke-linecap="round" stroke-linejoin="round" points="87.467,20.391 95.104,20.391 95.074,25.383 87.449,25.383 "/>
    <g>
        <circle fill="none" stroke="#ffffff" stroke-width="0.9103" cx="76.578" cy="6.8" r="6.344"/>
        <polyline fill="none" stroke="#ffffff" stroke-width="0.9103" stroke-linecap="round" stroke-linejoin="round" points="83.848,31.479 82.204,32.023 82.204,38.398 81.204,39.195 81.204,48.968 71.964,48.968 71.964,39.256 70.964,38.398 70.964,31.968 68.055,31.11 68.055,17.418 70.624,15.081 82.49,15.081 85.055,17.48 85.055,28.288 79.684,30.227"/>
        <line fill="none" stroke="#ffffff" stroke-width="0.9103" stroke-linecap="round" stroke-linejoin="round" x1="76.714" y1="48.968" x2="76.714" y2="39.256"/>
    </g>
</svg>
