<svg xmlns="http://www.w3.org/2000/svg" xmlns:xlink="http://www.w3.org/1999/xlink" version="1.1" x="0px" y="0px" viewBox="0 0 61.471 101.12875000000001" enable-background="new 0 0 61.471 80.903" xml:space="preserve"><polyline fill="none" stroke="#ffffff" stroke-width="1.4707" stroke-linecap="round" stroke-linejoin="round" points="  0.765,33.377 13.267,33.377 13.217,41.549 0.735,41.549 "/><g><path fill="none" stroke="#ffffff" stroke-width="1.49" d="M40.793,11.129c0,5.736-4.646,10.388-10.386,10.388   c-5.735,0-10.384-4.652-10.384-10.388S24.672,0.745,30.407,0.745C36.146,0.745,40.793,5.393,40.793,11.129z"/><polyline fill="none" stroke="#ffffff" stroke-width="1.49" stroke-linecap="round" stroke-linejoin="round" points="   42.311,51.525 39.619,52.417 39.619,62.849 37.981,64.162 37.981,80.158 22.857,80.158 22.857,64.253 21.22,62.849 21.22,52.33    16.46,50.926 16.46,28.508 20.663,24.686 40.086,24.686 44.288,28.613 44.288,46.304 35.492,49.476  "/><line fill="none" stroke="#ffffff" stroke-width="1.49" stroke-linecap="round" stroke-linejoin="round" x1="30.635" y1="80.158" x2="30.635" y2="64.253"/></g><polyline fill="none" stroke="#ffffff" stroke-width="1.4707" stroke-linecap="round" stroke-linejoin="round" points="  48.237,33.378 60.735,33.378 60.686,41.549 48.204,41.549 "/></svg>