<?xml version="1.0" encoding="utf-8"?>
<!-- Svg Vector Icons : http://www.onlinewebfonts.com/icon -->
<!DOCTYPE svg PUBLIC "-//W3C//DTD SVG 1.1//EN" "http://www.w3.org/Graphics/SVG/1.1/DTD/svg11.dtd">
<svg version="1.1" xmlns="http://www.w3.org/2000/svg" xmlns:xlink="http://www.w3.org/1999/xlink" x="0px" y="0px" viewBox="0 0 1000 1000" enable-background="new 0 0 1000 1000" xml:space="preserve">
<metadata> Svg Vector Icons : http://www.onlinewebfonts.com/icon </metadata>
<g><path style="fill:#FFF;" d="M500,10c13.5,0,25.1,4.8,34.7,14.4C544.2,33.9,549,45.5,549,59v392h392c13.5,0,25.1,4.8,34.7,14.4c9.6,9.6,14.4,21.1,14.4,34.7c0,13.5-4.8,25.1-14.4,34.6c-9.6,9.6-21.1,14.4-34.7,14.4H549v392c0,13.5-4.8,25.1-14.4,34.7c-9.6,9.6-21.1,14.4-34.7,14.4c-13.5,0-25.1-4.8-34.7-14.4c-9.6-9.6-14.4-21.1-14.4-34.7V549H59c-13.5,0-25.1-4.8-34.7-14.4C14.8,525.1,10,513.5,10,500c0-13.5,4.8-25.1,14.4-34.7C33.9,455.8,45.5,451,59,451h392V59c0-13.5,4.8-25.1,14.4-34.7C474.9,14.8,486.5,10,500,10L500,10z"/></g>
</svg>